<svg xmlns="http://www.w3.org/2000/svg" xmlns:xlink="http://www.w3.org/1999/xlink" width="500" zoomAndPan="magnify" viewBox="0 0 375 374.999991" height="500" preserveAspectRatio="xMidYMid meet" version="1.2"><defs><clipPath id="fc053af051"><path d="M 53 119 L 297 119 L 297 320 L 53 320 Z M 53 119 "/></clipPath><clipPath id="521640598b"><path d="M 227.96875 367.867188 L 4.476562 233.058594 L 74.59375 116.820312 L 298.082031 251.625 Z M 227.96875 367.867188 "/></clipPath><clipPath id="d439b6e559"><path d="M 227.96875 367.867188 L 4.476562 233.058594 L 74.59375 116.820312 L 298.082031 251.625 Z M 227.96875 367.867188 "/></clipPath><clipPath id="4ccfb53b3d"><path d="M 50 58 L 257 58 L 257 298 L 50 298 Z M 50 58 "/></clipPath><clipPath id="a6ad454ae6"><path d="M 0 223.003906 L 146.765625 7.179688 L 259.019531 83.515625 L 112.253906 299.339844 Z M 0 223.003906 "/></clipPath><clipPath id="385124045f"><path d="M 0 223.003906 L 146.765625 7.179688 L 259.019531 83.515625 L 112.253906 299.339844 Z M 0 223.003906 "/></clipPath><clipPath id="de1f36b124"><path d="M 230.71875 157.246094 L 336.355469 157.246094 L 336.355469 308.988281 L 230.71875 308.988281 Z M 230.71875 157.246094 "/></clipPath></defs><g id="648d4d2f24"><g clip-rule="nonzero" clip-path="url(#fc053af051)"><g clip-rule="nonzero" clip-path="url(#521640598b)"><g clip-rule="nonzero" clip-path="url(#d439b6e559)"><path style=" stroke:none;fill-rule:nonzero;fill:#5ce1e6;fill-opacity:1;" d="M 79.65625 119.855469 L 293.507812 248.847656 C 293.816406 249.03125 294.105469 249.242188 294.375 249.484375 C 294.644531 249.722656 294.886719 249.988281 295.101562 250.277344 C 295.320312 250.566406 295.503906 250.875 295.660156 251.203125 C 295.8125 251.527344 295.933594 251.867188 296.019531 252.214844 C 296.109375 252.566406 296.160156 252.921875 296.175781 253.285156 C 296.191406 253.644531 296.171875 254.003906 296.117188 254.359375 C 296.0625 254.714844 295.972656 255.0625 295.847656 255.402344 C 295.722656 255.742188 295.566406 256.066406 295.378906 256.371094 C 294.273438 258.199219 293.128906 259.996094 291.9375 261.765625 C 290.746094 263.535156 289.515625 265.273438 288.238281 266.984375 C 286.964844 268.691406 285.644531 270.371094 284.289062 272.015625 C 282.929688 273.660156 281.53125 275.269531 280.09375 276.84375 C 278.65625 278.421875 277.183594 279.960938 275.667969 281.464844 C 274.15625 282.96875 272.609375 284.433594 271.023438 285.859375 C 269.4375 287.289062 267.820312 288.675781 266.167969 290.023438 C 264.515625 291.371094 262.828125 292.675781 261.113281 293.941406 C 259.394531 295.207031 257.648438 296.429688 255.871094 297.609375 C 254.09375 298.789062 252.289062 299.925781 250.457031 301.015625 C 248.625 302.105469 246.765625 303.152344 244.882812 304.152344 C 243 305.152344 241.089844 306.105469 239.160156 307.011719 C 237.230469 307.917969 235.277344 308.773438 233.304688 309.585938 C 231.332031 310.394531 229.339844 311.15625 227.328125 311.867188 C 225.320312 312.582031 223.292969 313.242188 221.25 313.855469 C 219.207031 314.46875 217.152344 315.03125 215.082031 315.542969 C 213.011719 316.054688 210.929688 316.519531 208.835938 316.925781 C 206.742188 317.335938 204.640625 317.695312 202.53125 318.003906 C 200.417969 318.308594 198.300781 318.5625 196.179688 318.765625 C 194.054688 318.96875 191.929688 319.121094 189.800781 319.21875 C 187.667969 319.316406 185.535156 319.363281 183.402344 319.355469 C 181.269531 319.351562 179.140625 319.292969 177.011719 319.179688 C 174.878906 319.070312 172.753906 318.90625 170.632812 318.691406 C 168.511719 318.476562 166.394531 318.210938 164.285156 317.890625 C 162.175781 317.570312 160.078125 317.199219 157.988281 316.777344 C 155.894531 316.355469 153.816406 315.882812 151.75 315.359375 C 149.683594 314.835938 147.628906 314.261719 145.589844 313.636719 C 143.550781 313.011719 141.527344 312.335938 139.523438 311.613281 C 137.515625 310.886719 135.527344 310.113281 133.5625 309.292969 C 131.59375 308.472656 129.644531 307.601562 127.71875 306.683594 C 125.796875 305.765625 123.894531 304.804688 122.015625 303.792969 C 120.136719 302.78125 118.285156 301.726562 116.457031 300.625 C 114.632812 299.523438 112.835938 298.375 111.0625 297.1875 C 109.292969 295.996094 107.554688 294.765625 105.84375 293.488281 C 104.136719 292.214844 102.457031 290.898438 100.8125 289.539062 C 99.167969 288.183594 97.558594 286.785156 95.980469 285.347656 C 94.40625 283.914062 92.863281 282.4375 91.359375 280.925781 C 89.855469 279.414062 88.390625 277.863281 86.960938 276.28125 C 85.535156 274.695312 84.148438 273.078125 82.796875 271.425781 C 81.449219 269.773438 80.140625 268.089844 78.875 266.371094 C 77.609375 264.65625 76.386719 262.910156 75.207031 261.132812 C 74.027344 259.355469 72.890625 257.550781 71.800781 255.71875 C 70.707031 253.886719 69.664062 252.03125 68.664062 250.144531 C 67.660156 248.261719 66.707031 246.355469 65.800781 244.425781 C 64.894531 242.496094 64.035156 240.542969 63.226562 238.570312 C 62.414062 236.597656 61.652344 234.605469 60.9375 232.597656 C 60.226562 230.585938 59.5625 228.558594 58.949219 226.515625 C 58.335938 224.476562 57.773438 222.417969 57.257812 220.347656 C 56.746094 218.277344 56.285156 216.195312 55.875 214.101562 C 55.464844 212.011719 55.105469 209.910156 54.796875 207.796875 C 54.488281 205.6875 54.234375 203.570312 54.03125 201.449219 C 53.828125 199.324219 53.675781 197.199219 53.574219 195.066406 C 53.476562 192.9375 53.429688 190.804688 53.4375 188.671875 C 53.441406 186.539062 53.5 184.410156 53.609375 182.277344 C 53.71875 180.148438 53.882812 178.023438 54.097656 175.902344 C 54.308594 173.777344 54.578125 171.664062 54.894531 169.554688 C 55.214844 167.445312 55.582031 165.34375 56.003906 163.253906 C 56.425781 161.164062 56.898438 159.085938 57.421875 157.015625 C 57.945312 154.949219 58.519531 152.894531 59.144531 150.855469 C 59.765625 148.816406 60.441406 146.792969 61.164062 144.789062 C 61.886719 142.78125 62.660156 140.792969 63.480469 138.828125 C 64.304688 136.859375 65.171875 134.910156 66.089844 132.984375 C 67.003906 131.058594 67.96875 129.15625 68.980469 127.277344 C 69.988281 125.398438 71.042969 123.546875 72.144531 121.722656 C 72.328125 121.410156 72.542969 121.125 72.78125 120.855469 C 73.023438 120.589844 73.289062 120.347656 73.578125 120.132812 C 73.867188 119.917969 74.171875 119.734375 74.5 119.582031 C 74.824219 119.425781 75.160156 119.308594 75.511719 119.21875 C 75.859375 119.132812 76.214844 119.082031 76.574219 119.066406 C 76.933594 119.046875 77.289062 119.066406 77.648438 119.121094 C 78.003906 119.175781 78.347656 119.265625 78.6875 119.386719 C 79.027344 119.511719 79.347656 119.667969 79.65625 119.855469 Z M 79.65625 119.855469 "/></g></g></g><g clip-rule="nonzero" clip-path="url(#4ccfb53b3d)"><g clip-rule="nonzero" clip-path="url(#a6ad454ae6)"><g clip-rule="nonzero" clip-path="url(#385124045f)"><path style=" stroke:none;fill-rule:nonzero;fill:#ff3131;fill-opacity:1;" d="M 255.714844 88.40625 L 115.277344 294.921875 C 115.078125 295.222656 114.851562 295.5 114.59375 295.753906 C 114.339844 296.011719 114.0625 296.238281 113.761719 296.4375 C 113.460938 296.636719 113.144531 296.804688 112.808594 296.941406 C 112.476562 297.078125 112.128906 297.179688 111.777344 297.25 C 111.421875 297.316406 111.0625 297.347656 110.703125 297.347656 C 110.339844 297.34375 109.984375 297.304688 109.632812 297.230469 C 109.277344 297.15625 108.933594 297.046875 108.605469 296.902344 C 108.273438 296.761719 107.957031 296.585938 107.660156 296.378906 C 105.898438 295.179688 104.164062 293.9375 102.464844 292.652344 C 100.761719 291.367188 99.089844 290.042969 97.453125 288.675781 C 95.816406 287.308594 94.214844 285.902344 92.644531 284.457031 C 91.078125 283.011719 89.546875 281.527344 88.050781 280.007812 C 86.554688 278.484375 85.097656 276.929688 83.679688 275.335938 C 82.261719 273.746094 80.882812 272.117188 79.542969 270.457031 C 78.203125 268.796875 76.90625 267.105469 75.648438 265.382812 C 74.394531 263.660156 73.179688 261.90625 72.011719 260.121094 C 70.839844 258.339844 69.714844 256.527344 68.632812 254.691406 C 67.554688 252.851562 66.519531 250.988281 65.527344 249.097656 C 64.539062 247.210938 63.597656 245.296875 62.699219 243.359375 C 61.804688 241.425781 60.957031 239.46875 60.15625 237.492188 C 59.355469 235.515625 58.605469 233.519531 57.90625 231.503906 C 57.203125 229.492188 56.550781 227.460938 55.949219 225.414062 C 55.347656 223.367188 54.796875 221.308594 54.292969 219.234375 C 53.792969 217.164062 53.34375 215.078125 52.945312 212.984375 C 52.546875 210.886719 52.199219 208.785156 51.902344 206.671875 C 51.609375 204.558594 51.363281 202.441406 51.171875 200.316406 C 50.980469 198.195312 50.84375 196.066406 50.757812 193.933594 C 50.667969 191.804688 50.632812 189.671875 50.652344 187.539062 C 50.667969 185.40625 50.738281 183.277344 50.863281 181.144531 C 50.984375 179.015625 51.160156 176.890625 51.386719 174.769531 C 51.613281 172.652344 51.890625 170.535156 52.21875 168.429688 C 52.550781 166.324219 52.933594 164.226562 53.367188 162.136719 C 53.800781 160.046875 54.285156 157.972656 54.820312 155.90625 C 55.355469 153.84375 55.9375 151.792969 56.574219 149.757812 C 57.210938 147.722656 57.894531 145.703125 58.632812 143.699219 C 59.367188 141.699219 60.148438 139.714844 60.980469 137.75 C 61.816406 135.789062 62.695312 133.84375 63.621094 131.925781 C 64.550781 130.003906 65.523438 128.109375 66.542969 126.234375 C 67.566406 124.363281 68.632812 122.515625 69.742188 120.695312 C 70.855469 118.875 72.007812 117.082031 73.207031 115.320312 C 74.40625 113.554688 75.648438 111.824219 76.933594 110.121094 C 78.21875 108.417969 79.542969 106.746094 80.910156 105.109375 C 82.277344 103.472656 83.683594 101.867188 85.128906 100.300781 C 86.574219 98.730469 88.054688 97.199219 89.574219 95.703125 C 91.097656 94.207031 92.652344 92.75 94.242188 91.332031 C 95.835938 89.910156 97.460938 88.53125 99.121094 87.191406 C 100.78125 85.851562 102.472656 84.554688 104.195312 83.296875 C 105.917969 82.039062 107.671875 80.828125 109.453125 79.65625 C 111.238281 78.484375 113.046875 77.359375 114.886719 76.277344 C 116.722656 75.195312 118.585938 74.160156 120.476562 73.167969 C 122.367188 72.179688 124.277344 71.234375 126.210938 70.339844 C 128.148438 69.445312 130.105469 68.59375 132.082031 67.792969 C 134.058594 66.996094 136.054688 66.242188 138.066406 65.539062 C 140.082031 64.839844 142.109375 64.1875 144.15625 63.582031 C 146.203125 62.980469 148.261719 62.429688 150.335938 61.925781 C 152.40625 61.425781 154.492188 60.972656 156.585938 60.574219 C 158.683594 60.175781 160.785156 59.828125 162.898438 59.53125 C 165.007812 59.234375 167.128906 58.992188 169.25 58.796875 C 171.375 58.605469 173.503906 58.464844 175.632812 58.378906 C 177.765625 58.292969 179.898438 58.253906 182.03125 58.273438 C 184.164062 58.289062 186.292969 58.359375 188.421875 58.480469 C 190.550781 58.601562 192.675781 58.773438 194.796875 59 C 196.917969 59.226562 199.035156 59.503906 201.140625 59.835938 C 203.246094 60.164062 205.34375 60.546875 207.433594 60.976562 C 209.523438 61.410156 211.597656 61.894531 213.664062 62.429688 C 215.726562 62.960938 217.777344 63.546875 219.816406 64.183594 C 221.851562 64.816406 223.871094 65.503906 225.871094 66.238281 C 227.875 66.972656 229.859375 67.753906 231.820312 68.585938 C 233.785156 69.417969 235.726562 70.296875 237.648438 71.222656 C 239.570312 72.148438 241.46875 73.125 243.339844 74.144531 C 245.214844 75.164062 247.058594 76.230469 248.878906 77.339844 C 250.703125 78.449219 252.492188 79.605469 254.257812 80.804688 C 254.558594 81.003906 254.832031 81.234375 255.085938 81.488281 C 255.339844 81.742188 255.566406 82.019531 255.765625 82.320312 C 255.964844 82.621094 256.128906 82.9375 256.265625 83.269531 C 256.402344 83.605469 256.503906 83.949219 256.570312 84.300781 C 256.640625 84.65625 256.671875 85.011719 256.667969 85.371094 C 256.664062 85.730469 256.628906 86.085938 256.554688 86.4375 C 256.480469 86.792969 256.371094 87.132812 256.230469 87.464844 C 256.089844 87.792969 255.917969 88.109375 255.714844 88.40625 Z M 255.714844 88.40625 "/></g></g></g><g clip-rule="nonzero" clip-path="url(#de1f36b124)"><path style=" stroke:none;fill-rule:nonzero;fill:#43f8ac;fill-opacity:1;" d="M 230.71875 157.246094 L 336.355469 157.246094 L 336.355469 309.097656 L 230.71875 309.097656 Z M 230.71875 157.246094 "/></g></g></svg>